<svg width="227" height="68" viewBox="0 0 227 68" fill="none" xmlns="http://www.w3.org/2000/svg">
<path fill-rule="evenodd" clip-rule="evenodd" d="M29.7258 0.236661C20.4142 1.42134 11.9713 7.80176 7.98583 16.6656C7.00859 18.839 7.19426 19.1278 9.65713 19.2656L11.3569 19.3606L12.5004 17.2202C13.9502 14.5056 15.224 12.7705 17.0398 11.0357C20.3039 7.91749 24.3414 5.70971 28.4053 4.82078C31.3703 4.17226 37.8318 4.36514 40.3708 5.17775C46.1476 7.02661 51.0651 10.8493 54.0091 15.78C55.3562 18.0362 56.7108 21.7132 56.8072 23.3745L56.862 24.3243L54.3031 24.8502C49.269 25.8844 44.6494 27.697 40.7791 30.1563C39.8403 30.7529 38.9165 31.2398 38.7263 31.2387C38.536 31.2376 37.6768 30.345 36.8167 29.2554C33.8372 25.4805 29.1426 21.6693 24.7648 19.4707C23.4193 18.7951 22.3178 18.1597 22.3172 18.0588C22.3164 17.9576 22.9826 17.2856 23.7972 16.5655C27.471 13.3181 33.001 11.9657 37.4047 13.2374C41.1482 14.3186 44.6705 16.9966 46.4686 20.1293C47.2949 21.5687 47.4848 21.7344 48.288 21.7154C49.6096 21.6841 51.1618 21.0574 51.2698 20.5115C51.4026 19.8397 50.0603 17.4025 48.5576 15.5869C40.3859 5.71418 24.7508 6.40548 17.7202 16.9504C16.9218 18.1477 16.3449 19.3341 16.3449 19.7782C16.3449 20.4637 16.5305 20.6093 18.1219 21.1723C25.0244 23.6143 31.3049 28.5644 35.5699 34.9235C36.583 36.4342 37.5116 37.6703 37.6333 37.6703C37.755 37.6703 38.6128 37.0894 39.5392 36.3796C46.1558 31.31 50.6963 29.4868 59.8475 28.2256L61.4113 28.01L61.3422 25.7818C61.1105 18.3 57.5291 11.294 51.3107 6.15725C45.5971 1.43755 37.577 -0.762403 29.7258 0.236661ZM89.8444 0.652612C89.3144 1.04648 89.2718 1.43951 89.2163 6.44405C89.1836 9.39708 89.1515 11.9568 89.1452 12.1326C89.0926 13.5801 86.5393 11.3351 78.0521 2.37875C76.2412 0.468118 75.1727 -0.00737406 74.8053 0.934106C74.5798 1.51135 74.5798 21.5558 74.8053 22.1331C75.0328 22.7156 77.625 22.7483 78.207 22.1758C78.5332 21.8555 78.6133 20.6311 78.6133 15.9796C78.6133 10.882 78.6716 10.1283 79.0978 9.73057C79.5488 9.30959 79.78 9.49156 82.4387 12.3551C89.7642 20.2456 92.0576 22.5753 92.4998 22.5753C93.4904 22.5753 93.5654 21.7641 93.5074 11.6733C93.4762 6.21539 93.4389 1.54992 93.4247 1.30561C93.3673 0.32807 90.8893 -0.123661 89.8444 0.652612ZM122.118 0.769179C121.769 1.11217 121.547 1.70199 121.547 2.28595C121.547 4.0775 121.626 4.12586 124.529 4.12586C126.292 4.12586 127.261 4.2413 127.455 4.47528C127.637 4.69415 127.762 8.05698 127.788 13.4825C127.82 19.8744 127.92 22.196 128.172 22.3533C128.747 22.7125 131.121 22.6032 131.46 22.2021C131.672 21.9508 131.8 18.9581 131.85 13.0473L131.925 4.26562L134.617 4.18456C136.33 4.13284 137.388 3.9805 137.527 3.76525C137.647 3.57908 137.747 2.89953 137.75 2.25492C137.757 0.283064 137.583 0.239736 129.608 0.222684C123.049 0.208708 122.659 0.237221 122.118 0.769179ZM144.505 0.602575C144.053 0.939976 144 1.71569 143.937 8.83074C143.899 13.1515 143.935 16.4962 144.018 16.2631C144.107 16.014 144.307 16.3494 144.505 17.0774C144.723 17.8779 145.337 18.8454 146.242 19.8163C150.486 24.3657 157.886 23.2621 160.545 17.6834C161.193 16.3237 161.211 16.0769 161.211 8.59844V0.911184L159.434 0.827881L157.657 0.744859L157.618 3.90279C157.596 5.63983 157.61 8.77343 157.649 10.8663C157.728 15.1804 157.357 16.5219 155.709 17.8852C154.06 19.2496 151.214 19.2393 149.62 17.8629C147.85 16.3346 147.719 15.645 147.712 7.82972L147.706 0.771415L146.497 0.73843C145.363 0.707401 145.342 0.692027 146.142 0.491878L146.995 0.278592L146 0.254272C145.452 0.241134 144.78 0.397674 144.505 0.602575ZM218.362 0.460291C217.095 0.778124 216.375 1.21951 215.549 2.18447C214.576 3.32135 214.375 4.21223 214.786 5.561C215.295 7.23095 216.385 8.21632 219.35 9.68472L222.044 11.0192L221.974 12.2548C221.916 13.2592 221.962 13.3956 222.218 12.9841C222.391 12.7057 222.459 12.2903 222.37 12.0611C222.278 11.8257 222.329 11.7186 222.488 11.8151C222.974 12.1105 222.796 12.7907 222.037 13.537C221.41 14.1534 221.133 14.2342 220.117 14.0975C219.465 14.0094 218.739 13.8887 218.504 13.8289C216.434 13.3003 215.972 13.3044 215.369 13.8565C214.48 14.6708 214.762 15.3149 216.35 16.0931C219.1 17.4416 223.534 16.8864 225.19 14.9861C226.147 13.8887 226.587 12.1838 226.207 11.0505C225.735 9.64531 224.816 8.9132 221.549 7.34053C218.546 5.89476 217.703 5.07516 218.227 4.11188C218.651 3.33309 220.082 2.88863 220.992 3.25286C221.422 3.42534 222.405 3.59781 223.176 3.63639C224.435 3.69928 224.623 3.62968 225.015 2.95683C225.413 2.27337 225.408 2.16015 224.959 1.67208C224.088 0.725851 220.171 0.00632308 218.362 0.460291ZM105.897 6.43203C104.443 9.54551 102.7 13.1851 102.023 14.5202C101.345 15.8552 100.791 17.017 100.791 17.1014C100.791 17.1861 100.407 18.0342 99.9382 18.9863C99.469 19.9387 99.0852 21.153 99.0852 21.6852V22.653L100.828 22.4976C102.77 22.3245 103.017 22.1437 103.781 20.339C104.826 17.8749 105.196 17.5436 106.91 17.5436C110.24 17.5436 112.738 18.6453 115.067 21.141C116.261 22.4215 116.53 22.5753 117.575 22.5753C118.722 22.5753 119.557 22.1003 119.557 21.4482C119.557 20.746 110.379 1.08058 109.981 0.930472C108.743 0.463645 108.582 0.681125 105.897 6.43203ZM169.173 0.976595C168.992 1.11273 168.888 5.08411 168.888 11.8836C168.888 17.7647 168.931 22.4514 168.982 22.2985C169.042 22.1213 169.257 22.1154 169.574 22.2826C170.211 22.6178 172.211 22.3807 172.499 21.9363C172.619 21.7495 172.72 19.9345 172.723 17.9028C172.727 14.5392 172.776 14.183 173.277 13.9194C174.006 13.5359 176.707 13.5429 176.707 13.9284C176.707 14.109 176.454 14.1503 176.068 14.0335C175.716 13.9273 175.524 13.9398 175.641 14.0614C175.759 14.183 176.143 14.3063 176.494 14.3351C176.894 14.3678 177.119 14.559 177.095 14.8444C177.074 15.0957 177.151 15.2439 177.266 15.1734C177.593 14.975 179.062 18.0297 178.822 18.4105C178.695 18.6131 178.729 18.6755 178.909 18.5667C179.25 18.3596 179.636 19.1378 179.388 19.5325C179.298 19.6762 179.365 19.7592 179.538 19.717C179.71 19.6748 180.145 20.2062 180.504 20.8981L181.157 22.156L183.055 22.2387C184.628 22.3072 184.953 22.246 184.953 21.8815C184.953 21.6394 184.034 19.7248 182.912 17.6264L180.87 13.8112L181.839 13.0917C184.524 11.0972 185.331 9.74259 185.359 7.17924C185.377 5.60097 185.258 5.14672 184.52 3.97323C184.047 3.221 183.109 2.22445 182.435 1.75846L181.21 0.911184L175.333 0.836827C172.101 0.796014 169.329 0.85891 169.173 0.976595ZM193.838 0.956469C193.563 1.06577 193.483 3.40968 193.483 11.3499C193.483 21.5729 193.485 21.6033 194.101 21.9818C195.047 22.5624 206.104 22.5068 206.702 21.9184C207.288 21.3431 207.273 19.3341 206.681 19.111C206.434 19.0176 204.397 18.9413 202.155 18.9413C199.913 18.9413 197.876 18.865 197.629 18.7716C197.267 18.6349 197.179 18.1298 197.179 16.1719C197.179 14.6546 197.308 13.6158 197.521 13.4065C197.746 13.1848 198.975 13.0696 201.146 13.0671C205.502 13.0621 205.709 12.9984 205.709 11.6608C205.709 10.468 205.131 9.7219 204.196 9.70653C199.864 9.63497 197.829 9.52399 197.535 9.34313C197.109 9.08092 197.046 5.04609 197.458 4.40539C197.669 4.07694 198.422 3.97826 200.936 3.95003C207.939 3.87148 207.582 3.98972 207.236 1.86748L207.058 0.771415L200.626 0.793499C197.088 0.805519 194.034 0.879037 193.838 0.956469ZM180.044 4.58038C181.058 5.20487 181.637 6.30233 181.589 7.50713C181.535 8.84527 180.925 9.83232 179.892 10.2508C179.042 10.5952 173.456 10.8059 173.15 10.5049C172.91 10.2698 172.694 5.28202 172.894 4.62902C173.001 4.281 173.435 4.12614 174.518 4.04926C176.743 3.8916 179.33 4.14011 180.044 4.58038ZM213.955 4.66844C213.955 5.12073 214.056 5.55205 214.18 5.62725C214.303 5.70244 214.353 5.33234 214.291 4.80513C214.151 3.63024 213.955 3.55029 213.955 4.66844ZM111.083 11.6602C111.841 13.4031 112.42 14.8699 112.369 14.9193C112.319 14.9691 111.836 14.8967 111.297 14.7589C110.758 14.6208 109.5 14.3779 108.502 14.2191C107.504 14.06 106.64 13.8828 106.581 13.8249C106.347 13.5952 109.081 8.28676 109.382 8.38544C109.56 8.44358 110.325 9.9173 111.083 11.6602ZM173.941 14.1034C174.217 14.1744 174.601 14.1696 174.794 14.093C174.986 14.0164 174.76 13.9586 174.291 13.9642C173.822 13.9697 173.664 14.0324 173.941 14.1034ZM214.581 19.842C214.032 20.1061 213.941 20.3409 214.012 21.2964L214.097 22.4355H220.352H226.608L226.693 21.1441C226.766 20.0318 226.695 19.8311 226.183 19.6994C225.015 19.3992 215.25 19.5191 214.581 19.842ZM1.50934 23.8916C0.117829 24.101 -0.00443279 24.536 0.0001165 29.2573C0.00466579 33.9309 0.34501 35.9693 1.7206 39.5636C4.69015 47.3215 10.9551 53.634 18.7054 56.6768C21.3337 57.7086 24.8748 58.6355 26.1887 58.6355C27.036 58.6355 27.154 58.5332 27.3982 57.5873C28.2572 54.2611 27.9098 49.4989 26.5424 45.8593C24.1247 39.4224 18.4751 34.4321 11.716 32.763C9.33328 32.1746 8.8411 32.3219 9.09615 33.5468C9.69239 36.4121 9.71911 36.4465 11.9992 37.2638C13.1644 37.6817 14.8644 38.5136 15.7768 39.1127C20.2135 42.0254 23.4531 47.5169 23.4531 52.1251C23.4531 53.9018 23.2766 53.9482 20.5877 52.8751C14.4913 50.4417 9.08136 45.3824 6.52437 39.7226C5.25654 36.9161 4.38507 33.4945 4.20395 30.612L4.03278 27.8865H7.00717C10.9161 27.8865 13.8962 28.6141 17.9155 30.5505C24.9763 33.9519 29.5017 39.5323 31.7377 47.5938C32.0161 48.5979 32.0968 50.3296 32.0246 53.7436C31.8273 63.0564 31.8443 67.5382 32.0778 67.7674C32.208 67.8955 33.1676 68 34.2102 68H36.1059L36.0055 63.6406C35.883 58.3258 36.4067 55.8038 38.5332 51.4688C41.5721 45.2737 46.9741 40.4908 53.3446 38.3549C55.7719 37.5411 59.6038 36.8317 61.5728 36.8317C62.9063 36.8317 62.9413 36.8535 63.0283 37.7402C63.4412 41.9516 61.5091 48.5974 58.6863 52.6738C57.3451 54.6108 54.019 57.937 52.0031 59.3573C50.3847 60.4975 46.8698 62.2737 45.4163 62.6855C44.4581 62.9569 44.3469 62.2804 44.8968 59.5203C45.6295 55.8407 46.9585 53.3964 49.7151 50.6584C51.6647 48.7217 52.4566 48.159 54.7523 47.0795C57.2942 45.8842 57.4984 45.7257 57.8088 44.707C58.1961 43.436 58.2444 41.9589 57.9055 41.7529C57.5276 41.5234 54.88 42.3005 52.8353 43.2412C45.6836 46.5313 40.9438 53.2911 40.3481 61.0496C40.1223 63.9903 40.6151 67.5295 41.2855 67.7825C41.919 68.0215 45.4629 67.2 48.0805 66.2076C56.4006 63.0533 63.2054 56.0205 65.9359 47.754C67.1036 44.2184 67.3618 42.4716 67.3723 38.0297C67.3848 32.6366 67.5605 32.8586 63.1472 32.6926C55.7526 32.4141 48.6682 34.6823 42.8874 39.1792C40.6879 40.89 38.3291 43.3843 36.9967 45.4078C36.3595 46.3756 35.6794 46.6339 35.6794 45.9077C35.6794 44.2137 32.9037 38.4317 30.7187 35.5737C26.0571 29.477 19.9926 25.6823 12.4168 24.122C10.4763 23.7222 3.60117 23.5771 1.50934 23.8916ZM77.8758 30.9169C76.0296 31.769 75.0262 32.9134 74.662 34.5831C74.0112 37.5668 75.4058 39.5624 79.5294 41.548C82.5442 42.9996 83.5743 44.0574 83.3426 45.4624C83.1254 46.7781 82.6113 47.2097 81.056 47.3822C79.9665 47.503 79.4223 47.3719 77.8493 46.6104L75.9546 45.6935L75.2952 46.5039C74.1681 47.8885 74.3879 48.4187 76.5158 49.4485C78.1428 50.236 78.7228 50.3665 80.7808 50.4079C82.0907 50.4342 83.1626 50.376 83.1626 50.2788C83.1626 50.1815 83.6653 49.8877 84.2798 49.6261C84.994 49.3216 85.7347 48.6684 86.3349 47.813C87.588 46.0265 87.6553 43.9557 86.5138 42.3139C85.6278 41.0398 85.0097 40.6029 81.6665 38.8882C80.2963 38.1852 78.9147 37.2845 78.596 36.8864C77.7402 35.8167 77.9577 34.6247 79.153 33.8356C80.1231 33.1949 81.3568 32.9576 81.0321 33.4741C80.9335 33.631 81.0444 33.6802 81.2883 33.5882C81.5249 33.499 82.4589 33.7595 83.3645 34.1671L85.0108 34.9082L85.6662 34.1593C86.5573 33.1409 86.406 32.0795 85.2951 31.5537C84.826 31.3318 84.1862 31.0232 83.8735 30.8675C83.5607 30.712 82.3452 30.5387 81.1723 30.4823C79.5039 30.4023 78.7865 30.4968 77.8758 30.9169ZM140.94 30.9801C137.501 32.7015 136.85 36.7959 139.586 39.4861C140.237 40.1263 141.435 40.9453 142.247 41.3065C143.06 41.6676 143.725 42.0738 143.725 42.2091C143.725 42.3447 143.837 42.3874 143.974 42.3041C144.328 42.0889 146.625 43.7835 146.42 44.1091C146.327 44.2575 146.386 44.3791 146.552 44.3791C147.104 44.3791 146.861 45.7357 146.166 46.5299C145.575 47.2055 145.283 47.3101 144.062 47.2835C143.102 47.2628 142.209 47.0143 141.3 46.5148C140.562 46.1089 139.745 45.7768 139.486 45.7768C138.993 45.7768 138.038 47.1105 138.038 47.7979C138.038 48.9543 140.885 50.3632 143.471 50.4865C145.951 50.6044 147.49 50.1133 149.082 48.696C150.387 47.5343 150.392 47.5223 150.5 45.4366C150.628 42.9353 150.262 42.0663 148.492 40.6744C147.371 39.7922 144.909 38.5089 144.34 38.5089C143.747 38.5089 141.792 36.814 141.624 36.1552C141.4 35.2799 142.064 33.8823 142.79 33.6997C143.818 33.4412 145.616 33.7081 146.927 34.3136C148.537 35.0577 149.015 34.9283 149.581 33.5966C150.092 32.3943 149.89 32.0535 148.154 31.1889C147.347 30.7867 146.262 30.5745 144.578 30.4901C142.501 30.3855 141.989 30.4546 140.94 30.9801ZM190.261 30.5888C190.156 30.6911 190.086 31.2258 190.104 31.7768L190.136 32.7784L190.358 31.6602C190.591 30.4856 190.572 30.2821 190.261 30.5888ZM204.061 30.6816C204.066 30.7587 204.056 33.4319 204.037 36.622C204.01 41.2928 203.928 42.4224 203.619 42.4224C203.407 42.4224 201.461 40.5671 199.294 38.2992C193.296 32.0239 191.911 30.6818 191.434 30.6818C190.802 30.6818 190.648 31.8112 190.58 36.9365L190.52 41.444L190.355 37.1112C190.214 33.3995 190.182 33.9443 190.131 40.9115C190.075 48.4786 190.107 49.0768 190.591 49.5072C190.877 49.7616 191.421 49.9788 191.799 49.9895C192.446 50.0079 192.453 50.0252 191.919 50.2749C191.435 50.5007 191.457 50.5153 192.061 50.3724C192.452 50.2799 193.06 50.1368 193.412 50.0546C194.05 49.905 194.052 49.8897 194.052 44.0834C194.052 40.3066 194.157 38.1983 194.351 38.0803C194.516 37.9803 194.997 38.2559 195.419 38.6928C196.467 39.776 199.159 42.6743 201.729 45.4855C204.467 48.4819 206.325 50.2494 206.735 50.2494C207.309 50.2494 207.415 48.6667 207.415 40.0648C207.415 33.7408 207.326 31.5149 207.06 31.1783C206.739 30.7721 204.035 30.3246 204.061 30.6816ZM92.8299 31.2409C92.4193 31.9954 92.475 43.819 92.8919 44.3126C93.0588 44.5105 93.1185 44.7476 93.0247 44.8398C92.7403 45.1194 93.9766 47.2301 94.9928 48.2004C96.3962 49.5402 97.5739 50.0384 99.6922 50.1874C101.491 50.3137 104.772 49.6462 104.772 49.1534C104.772 49.0538 105.126 48.7668 105.559 48.5152C106.024 48.2451 106.721 47.3157 107.265 46.2425L108.184 44.4269V37.8682C108.184 30.553 108.191 30.5793 106.284 30.7336C105.315 30.8121 105.187 30.9119 105.094 31.6602C105.002 32.394 104.96 32.429 104.758 31.9398C104.63 31.63 104.535 34.0612 104.545 37.3907C104.555 40.7127 104.656 42.9633 104.772 42.4224C104.947 41.6031 104.987 41.5623 105.019 42.1711C105.107 43.8807 103.838 46.0446 102.338 46.7446C100.244 47.7213 97.8992 46.9716 96.6837 44.9374C96.15 44.044 96.0917 43.4181 96.0084 37.675C95.9524 33.8258 95.8014 31.2529 95.6183 31.036C95.1213 30.4476 93.1844 30.5899 92.8299 31.2409ZM115.465 31.1241C115.37 31.3673 115.292 35.508 115.292 40.3259C115.292 45.1437 115.37 49.2845 115.465 49.5277C115.585 49.8354 116.007 49.9699 116.853 49.9699C117.874 49.9699 118.097 49.869 118.241 49.3409C118.335 48.9949 118.414 46.3493 118.416 43.462C118.421 37.1442 118.526 36.9656 120.807 39.4235C126.443 45.4995 129.704 48.9988 130.026 49.3183C130.233 49.5229 130.713 49.6903 131.093 49.6903H131.783V40.8665C131.783 35.3188 131.674 31.8419 131.489 31.502C131.19 30.9538 130.456 30.8317 129.295 31.1375C128.66 31.3049 128.656 31.346 128.651 36.6547C128.649 39.5963 128.527 42.189 128.381 42.4162C128.086 42.8747 127.074 41.9234 120.135 34.6652C118.04 32.4742 116.171 30.6818 115.982 30.6818C115.792 30.6818 115.56 30.8809 115.465 31.1241ZM156.71 30.8683C156.605 30.9706 156.52 35.3104 156.52 40.5123C156.52 49.874 156.526 49.9699 157.105 49.9699C157.427 49.9699 157.613 50.0937 157.518 50.2452C157.302 50.5877 159.069 50.2883 159.577 49.8964C159.832 49.699 159.932 48.4713 159.932 45.5331V41.444L162.592 41.4641C164.744 41.4806 165.518 41.607 166.639 42.125C168.513 42.9912 169.201 43.7832 169.045 44.8963C169.015 45.1129 169.13 45.1904 169.315 45.0777C169.547 44.9368 169.62 45.4763 169.575 46.9937C169.504 49.4072 169.896 50.2835 171.107 50.4104C171.529 50.4546 171.874 50.3884 171.874 50.2628C171.874 50.1376 172.131 49.9688 172.446 49.888C173.008 49.7435 173.017 49.5578 172.944 40.2811L172.869 30.8216H171.305H169.741L169.663 35.148C169.584 39.4423 169.405 40.2789 168.687 39.6966C167.907 39.0635 164.723 38.2293 163.087 38.2293C162.154 38.2293 161.062 38.1066 160.661 37.9568C159.938 37.6862 159.932 37.6594 159.932 34.5185C159.932 32.429 159.816 31.2387 159.591 31.0173C159.231 30.6637 157.033 30.5499 156.71 30.8683ZM180.88 31.0313C180.437 31.3505 180.402 32.1813 180.471 40.6054L180.546 49.8301L181.797 49.9182C182.606 49.9749 183.133 49.8762 183.286 49.6386C183.416 49.4365 183.525 45.2345 183.527 40.301L183.531 31.3307L182.807 31.0064C181.883 30.5924 181.483 30.5974 180.88 31.0313ZM214.87 31.0117C214.613 31.265 214.523 33.5231 214.523 39.7878C214.523 44.4269 214.604 48.6183 214.702 49.1019L214.881 49.9811L220.734 49.9056L226.587 49.8301L226.85 48.9272C227.312 47.342 226.95 47.1991 222.243 47.1119L218.078 47.0347L217.996 44.449L217.914 41.8633L220.413 41.8407C221.787 41.8281 223.423 41.7968 224.049 41.7708L225.186 41.7235V40.3259V38.9282L221.632 38.7884L218.078 38.6486V36.2726V33.8965L222.243 33.8194C227.002 33.731 227.26 33.6223 226.84 31.876L226.587 30.8216L220.902 30.7461C216.72 30.6905 215.126 30.7607 214.87 31.0117ZM214.089 41.0247L214.097 50.3892L214.95 50.444C215.744 50.4951 215.754 50.4845 215.092 50.2919L214.381 50.0848L214.231 40.8724L214.081 31.6602L214.089 41.0247ZM104.983 38.9981C104.93 40.1894 104.886 39.2147 104.886 36.8317C104.886 34.4486 104.93 33.4739 104.983 34.6652C105.036 35.8566 105.036 37.8067 104.983 38.9981ZM162.566 41.2215C162.216 41.2878 161.577 41.2894 161.144 41.2254C160.712 41.1611 160.998 41.1069 161.78 41.1047C162.562 41.1027 162.916 41.1552 162.566 41.2215ZM190.565 47.794C190.508 48.6063 190.46 48.0131 190.459 46.4757C190.459 44.9382 190.506 44.2735 190.564 44.9986C190.622 45.724 190.623 46.9819 190.565 47.794ZM99.8671 46.8128C100.219 46.8793 100.795 46.8793 101.147 46.8128C101.499 46.746 101.211 46.6915 100.507 46.6915C99.8031 46.6915 99.5151 46.746 99.8671 46.8128ZM216.461 50.4403C216.666 50.5211 216.911 50.5111 217.005 50.4183C217.1 50.3255 216.932 50.2595 216.632 50.2715C216.301 50.2849 216.234 50.3512 216.461 50.4403ZM219.002 50.454C219.666 50.513 220.754 50.513 221.419 50.454C222.083 50.3953 221.539 50.347 220.21 50.347C218.881 50.347 218.337 50.3953 219.002 50.454ZM77.0387 57.3041C76.9557 57.5171 76.9241 59.1303 76.9685 60.8889C77.0441 63.8735 77.0873 64.0865 77.6182 64.0865C78.1564 64.0865 78.1868 63.9 78.1868 60.5962C78.1868 57.4919 78.1317 57.0953 77.6884 57.0114C77.4143 56.9594 77.122 57.0911 77.0387 57.3041ZM80.6747 57.1448C80.4183 57.2457 80.3193 58.2134 80.3193 60.6244C80.3193 63.3767 80.3964 63.9934 80.758 64.1298C81.4532 64.392 81.5897 64.0479 81.741 61.6512L81.8831 59.3995L83.447 61.7431C84.5445 63.3876 85.1802 64.0865 85.5794 64.0865C86.1177 64.0865 86.1481 63.9 86.1481 60.5923C86.1481 57.6728 86.0779 57.0981 85.7216 57.0981C85.3835 57.0981 85.2781 57.5766 85.2127 59.4042C85.1672 60.6725 85.0392 61.706 84.9283 61.7009C84.8172 61.6956 84.0227 60.665 83.1626 59.4107C81.594 57.1229 81.3335 56.8856 80.6747 57.1448ZM88.1339 57.2884C88.0474 57.5101 88.013 59.1303 88.0574 60.8889L88.1384 64.0865H90.3127C92.0537 64.0865 92.6064 63.98 93.0861 63.5529C94.4082 62.3757 94.5137 59.2916 93.2805 57.8819C92.7307 57.2535 92.3684 57.1428 90.4702 57.0229C88.7412 56.9139 88.2587 56.9686 88.1339 57.2884ZM95.8009 57.3139C95.7198 57.5216 95.69 59.1303 95.7343 60.8889L95.8154 64.0865L98.4454 64.167C100.929 64.2427 101.075 64.2154 101.075 63.6778C101.075 63.159 100.898 63.1081 99.0852 63.1081H97.0948V62.1432V61.1779L98.8719 61.0949C100.224 61.0314 100.649 60.9115 100.649 60.5923C100.649 60.273 100.224 60.1531 98.8719 60.0897L97.0948 60.0066V59.0543V58.1019L99.0141 58.0194C100.493 57.9557 100.933 57.8405 100.933 57.5174C100.933 56.9323 96.0258 56.7377 95.8009 57.3139ZM102.621 57.3248C102.542 57.5263 102.514 59.1303 102.558 60.8889C102.634 63.8735 102.677 64.0865 103.208 64.0865C103.683 64.0865 103.791 63.8721 103.862 62.7928L103.947 61.4994L105.357 61.366C107.163 61.1955 107.899 60.5596 107.899 59.1717C107.899 57.6026 106.934 56.9583 104.582 56.9583C103.344 56.9583 102.718 57.0754 102.621 57.3248ZM109.449 57.3139C109.368 57.5216 109.338 59.1303 109.382 60.8889L109.463 64.0865L112.093 64.167C114.577 64.2427 114.723 64.2154 114.723 63.6778C114.723 63.159 114.546 63.1081 112.733 63.1081H110.743V62.1432V61.1779L112.52 61.0949C113.872 61.0314 114.297 60.9115 114.297 60.5923C114.297 60.273 113.872 60.1531 112.52 60.0897L110.743 60.0066V59.0543V58.1019L112.662 58.0194C114.141 57.9557 114.581 57.8405 114.581 57.5174C114.581 56.9323 109.674 56.7377 109.449 57.3139ZM116.5 57.1448C116.244 57.2457 116.145 58.2134 116.145 60.6244C116.145 63.3767 116.222 63.9934 116.584 64.1298C117.279 64.392 117.415 64.0479 117.567 61.6512L117.709 59.3995L119.273 61.7431C120.37 63.3876 121.006 64.0865 121.405 64.0865C121.943 64.0865 121.974 63.9 121.974 60.5923C121.974 57.6728 121.904 57.0981 121.547 57.0981C121.209 57.0981 121.104 57.5766 121.038 59.4042C120.993 60.6725 120.865 61.706 120.754 61.7009C120.643 61.6956 119.848 60.665 118.988 59.4107C117.42 57.1229 117.159 56.8856 116.5 57.1448ZM123.96 57.2884C123.873 57.5101 123.839 59.1303 123.883 60.8889L123.964 64.0865H126.138C127.879 64.0865 128.432 63.98 128.912 63.5529C130.234 62.3757 130.339 59.2916 129.106 57.8819C128.556 57.2535 128.194 57.1428 126.296 57.0229C124.567 56.9139 124.084 56.9686 123.96 57.2884ZM131.627 57.3139C131.546 57.5216 131.516 59.1303 131.56 60.8889L131.641 64.0865L134.271 64.167C136.754 64.2427 136.901 64.2154 136.901 63.6778C136.901 63.159 136.724 63.1081 134.911 63.1081H132.921V62.1432V61.1779L134.698 61.0949C136.05 61.0314 136.475 60.9115 136.475 60.5923C136.475 60.273 136.05 60.1531 134.698 60.0897L132.921 60.0066V59.0543V58.1019L134.84 58.0194C136.319 57.9557 136.759 57.8405 136.759 57.5174C136.759 56.9323 131.851 56.7377 131.627 57.3139ZM138.678 57.1448C138.422 57.2457 138.323 58.2134 138.323 60.6244C138.323 63.3767 138.4 63.9934 138.762 64.1298C139.457 64.392 139.593 64.0479 139.744 61.6512L139.887 59.3995L141.45 61.7431C142.548 63.3876 143.184 64.0865 143.583 64.0865C144.121 64.0865 144.152 63.9 144.152 60.5923C144.152 57.6728 144.081 57.0981 143.725 57.0981C143.387 57.0981 143.282 57.5766 143.216 59.4042C143.171 60.6725 143.043 61.706 142.932 61.7009C142.821 61.6956 142.026 60.665 141.166 59.4107C139.597 57.1229 139.337 56.8856 138.678 57.1448ZM145.295 57.2283C144.963 57.7558 145.451 58.0764 146.585 58.0764H147.706V61.0203C147.706 63.4617 147.783 63.9937 148.161 64.136C148.904 64.4166 149.119 63.6792 149.123 60.8187L149.127 58.1103L150.194 58.0233C150.913 57.9649 151.26 57.8 151.26 57.5174C151.26 57.1775 150.713 57.083 148.368 57.0187C146.596 56.97 145.406 57.0511 145.295 57.2283ZM155.236 57.2884C155.15 57.5101 155.115 59.1303 155.159 60.8889L155.241 64.0865H157.415C159.156 64.0865 159.708 63.98 160.188 63.5529C161.51 62.3757 161.616 59.2916 160.383 57.8819C159.833 57.2535 159.471 57.1428 157.572 57.0229C155.843 56.9139 155.361 56.9686 155.236 57.2884ZM162.622 57.3041C162.539 57.5171 162.508 59.1303 162.552 60.8889C162.628 63.8735 162.671 64.0865 163.202 64.0865C163.74 64.0865 163.77 63.9 163.77 60.5962C163.77 57.4919 163.715 57.0953 163.272 57.0114C162.998 56.9594 162.706 57.0911 162.622 57.3041ZM167.048 57.2552C166.145 57.6278 165.913 58.0071 165.907 59.1149C165.902 60.1263 166.261 60.3949 168.484 61.044C169.646 61.3834 169.884 61.5639 169.884 62.1107C169.884 63.3027 167.897 63.5201 167.156 62.4093C166.608 61.5866 165.619 61.4653 165.619 62.2209C165.619 62.9278 166.749 63.9034 167.81 64.1122C168.921 64.3305 170.651 63.7877 171.023 63.1042C171.829 61.6238 170.853 60.2434 168.754 59.8948C167.388 59.6679 166.812 59.1035 167.325 58.4958C167.846 57.878 169.233 57.9632 169.599 58.6355C169.989 59.352 171.021 59.3833 171.021 58.6788C171.021 57.464 168.624 56.605 167.048 57.2552ZM172.022 57.2283C171.69 57.7558 172.178 58.0764 173.312 58.0764H174.433V61.0203C174.433 63.4617 174.51 63.9937 174.888 64.136C175.632 64.4166 175.846 63.6792 175.85 60.8187L175.854 58.1103L176.921 58.0233C177.64 57.9649 177.987 57.8 177.987 57.5174C177.987 57.1775 177.44 57.083 175.095 57.0187C173.323 56.97 172.133 57.0511 172.022 57.2283ZM179.117 57.2954C179.032 57.5132 178.999 59.1303 179.043 60.8889C179.119 63.8735 179.162 64.0865 179.693 64.0865C180.179 64.0865 180.274 63.8721 180.347 62.6189C180.426 61.2729 180.491 61.1514 181.127 61.1514C181.651 61.1514 182.072 61.5248 182.858 62.6888C183.429 63.5344 184.074 64.2263 184.291 64.2263C185.073 64.2263 185.028 63.3401 184.187 62.1663L183.343 60.9889L184.18 60.2353C184.863 59.6198 184.981 59.3394 184.824 58.709C184.491 57.3745 183.982 57.1095 181.535 57.0005C179.774 56.9217 179.237 56.9874 179.117 57.2954ZM186.506 57.3041C186.423 57.5171 186.392 59.1303 186.436 60.8889C186.512 63.8735 186.555 64.0865 187.086 64.0865C187.624 64.0865 187.654 63.9 187.654 60.5962C187.654 57.4919 187.599 57.0953 187.156 57.0114C186.882 56.9594 186.589 57.0911 186.506 57.3041ZM189.626 57.3248C189.547 57.5263 189.519 59.1303 189.564 60.8889L189.645 64.0865H192.016C194.165 64.0865 194.438 64.0247 194.93 63.4265C195.66 62.5398 195.615 61.562 194.817 60.9705C194.185 60.5014 194.18 60.4662 194.675 59.9793C195.383 59.2832 195.318 58.4575 194.491 57.6446C193.882 57.0452 193.538 56.9583 191.781 56.9583C190.384 56.9583 189.725 57.0704 189.626 57.3248ZM196.81 57.135C196.701 57.2429 196.611 58.4882 196.611 59.9024C196.611 62.9038 197.071 63.7966 198.783 64.1122C200.049 64.3456 201.911 63.8173 202.293 63.1165C202.452 62.8247 202.582 61.3786 202.582 59.9029C202.582 57.701 202.5 57.1895 202.126 57.0486C201.4 56.7744 201.169 57.4928 201.164 60.0472C201.16 62.6321 200.938 63.1109 199.753 63.1039C198.36 63.0955 198.184 62.7629 198.032 59.8375C197.919 57.6655 197.8 57.0866 197.45 57.0212C197.207 56.9759 196.92 57.0271 196.81 57.135ZM203.583 57.2283C203.251 57.7558 203.739 58.0764 204.873 58.0764H205.994V61.0203C205.994 63.4617 206.071 63.9937 206.449 64.136C207.192 64.4166 207.406 63.6792 207.411 60.8187L207.415 58.1103L208.481 58.0233C209.201 57.9649 209.548 57.8 209.548 57.5174C209.548 57.1775 209.001 57.083 206.656 57.0187C204.884 56.97 203.694 57.0511 203.583 57.2283ZM212.054 57.3524C210.94 57.8475 210.259 59.0766 210.259 60.5923C210.259 63.0332 211.952 64.4591 214.419 64.0954C217.258 63.677 218.308 59.8476 216.134 57.84C215.291 57.0609 213.257 56.818 212.054 57.3524ZM218.924 57.2954C218.839 57.5132 218.805 59.1303 218.85 60.8889C218.925 63.8735 218.968 64.0865 219.499 64.0865C219.985 64.0865 220.08 63.8721 220.154 62.6189C220.233 61.2729 220.297 61.1514 220.933 61.1514C221.457 61.1514 221.878 61.5248 222.664 62.6888C223.235 63.5344 223.881 64.2263 224.098 64.2263C224.88 64.2263 224.835 63.3401 223.993 62.1663L223.149 60.9889L223.986 60.2353C224.669 59.6198 224.788 59.3394 224.63 58.709C224.297 57.3745 223.788 57.1095 221.341 57.0005C219.581 56.9217 219.044 56.9874 218.924 57.2954ZM92.1461 58.6649C92.52 59.071 92.6877 59.6679 92.6877 60.5923C92.6877 62.338 92.0215 63.1081 90.5112 63.1081H89.4179V60.5923V58.0764H90.5112C91.2615 58.0764 91.7744 58.2609 92.1461 58.6649ZM106.028 58.2461C106.558 58.446 106.624 59.4982 106.137 59.9773C105.949 60.1618 105.373 60.3127 104.857 60.3127C103.952 60.3127 103.919 60.2733 103.919 59.1946C103.919 58.1455 103.97 58.0764 104.748 58.0764C105.205 58.0764 105.781 58.1528 106.028 58.2461ZM127.972 58.6649C128.346 59.071 128.513 59.6679 128.513 60.5923C128.513 62.338 127.847 63.1081 126.337 63.1081H125.244V60.5923V58.0764H126.337C127.087 58.0764 127.6 58.2609 127.972 58.6649ZM159.248 58.6649C159.622 59.071 159.79 59.6679 159.79 60.5923C159.79 62.338 159.124 63.1081 157.613 63.1081H156.52V60.5923V58.0764H157.613C158.364 58.0764 158.877 58.2609 159.248 58.6649ZM183.213 58.5729C183.694 59.456 183.084 60.0332 181.669 60.0332C180.413 60.0332 180.404 60.0265 180.404 59.0548C180.404 58.0829 180.412 58.0764 181.673 58.0764C182.598 58.0764 183.016 58.2112 183.213 58.5729ZM193.318 58.2461C193.85 58.4468 193.908 59.2242 193.426 59.6978C193.238 59.8823 192.599 60.0332 192.004 60.0332C190.959 60.0332 190.924 60.0013 190.924 59.0548C190.924 58.1276 190.975 58.0764 191.896 58.0764C192.43 58.0764 193.07 58.1528 193.318 58.2461ZM214.804 58.3537C215.629 58.7879 216.056 60.3938 215.66 61.5729C214.809 64.1083 211.68 63.3373 211.68 60.5923C211.68 58.6674 213.255 57.5389 214.804 58.3537ZM223.019 58.5729C223.5 59.456 222.89 60.0332 221.475 60.0332C220.219 60.0332 220.21 60.0265 220.21 59.0548C220.21 58.0829 220.218 58.0764 221.48 58.0764C222.405 58.0764 222.822 58.2112 223.019 58.5729ZM193.787 61.5941C194.413 62.3355 193.757 62.956 192.246 63.0536L190.924 63.1389V62.1451C190.924 61.1578 190.932 61.1514 192.169 61.1514C192.958 61.1514 193.55 61.3135 193.787 61.5941Z" fill="white"/>
</svg>
