<svg xmlns="http://www.w3.org/2000/svg" xmlns:xlink="http://www.w3.org/1999/xlink" width="0" height="0" style="position:absolute">
  <symbol id="cross" viewBox="0 0 18 18">
    <path d="M6.55064 8.85863L0.169706 2.4777L2.54558 0.101824L8.92652 6.48276L15.4093 0L17.9549 2.54558L11.4721 9.02834L17.9549 15.5111L15.579 17.887L9.09622 11.4042L2.54558 17.9549L0 15.4093L6.55064 8.85863Z"/>
  </symbol>
  <symbol id="arrow-right" viewBox="0 0 20 12">
    <path d="M19.7606 6.53009C20.0535 6.23719 20.0535 5.76232 19.7606 5.46943L14.9876 0.696456C14.6947 0.403563 14.2198 0.403563 13.9269 0.696456C13.634 0.989349 13.634 1.46422 13.9269 1.75712L18.1696 5.99976L13.9269 10.2424C13.634 10.5353 13.634 11.0102 13.9269 11.3031C14.2198 11.596 14.6947 11.596 14.9876 11.3031L19.7606 6.53009ZM0.429199 6.74976L19.2302 6.74976L19.2302 5.24976L0.429199 5.24976L0.429199 6.74976Z"/>
  </symbol>
  <symbol id="angle-down" viewBox="0 0 5 3">
    <path fill-rule="evenodd" clip-rule="evenodd" d="M5 0.545452L4.44445 0L2.49999 1.9091L0.555554 1.59116e-05L0 0.545468L2.49999 3L1.94445 2.45453L2.49999 1.9091L3.05555 2.45455L5 0.545452Z"/>
    <path d="M2.49999 3L3.05555 2.45455L2.49999 1.9091L1.94445 2.45453L2.49999 3Z" />
  </symbol>
  <symbol id="telegram" viewBox="0 0 26 22">
    <path d="M0.882965 10.2683C3.47697 8.8394 6.37259 7.6469 9.07805 6.44825C13.7327 4.4849 18.4058 2.55575 23.126 0.759605C24.0443 0.453575 25.6944 0.154281 25.8563 1.51528C25.7676 3.4418 25.4031 5.357 25.1532 7.2722C24.5186 11.4838 23.7852 15.6811 23.07 19.8788C22.8237 21.2771 21.0721 22.001 19.9513 21.1061C17.2577 19.2868 14.5436 17.4851 11.8844 15.6236C11.0133 14.7385 11.8211 13.4674 12.599 12.8354C14.8175 10.6492 17.1702 8.79155 19.2727 6.49235C19.8398 5.1227 18.1642 6.27695 17.6114 6.63065C14.5744 8.7236 11.6115 10.9442 8.4095 12.7837C6.77396 13.684 4.86764 12.9145 3.23279 12.4121C1.76693 11.8052 -0.381086 11.1938 0.882814 10.2683H0.882965Z"/>
  </symbol>
  <symbol id="whatsapp" viewBox="0 0 25 25">
    <path fill-rule="evenodd" clip-rule="evenodd" d="M6.32735 22.6069L5.89355 22.3495L1.39846 23.5288L2.59829 19.1459L2.3159 18.6967C1.127 16.8056 0.499086 14.6201 0.500001 12.376C0.502596 5.82755 5.83055 0.5 12.3818 0.5C15.5541 0.501095 18.5361 1.73804 20.7785 3.98303C23.0208 6.22805 24.255 9.212 24.2538 12.3856C24.2513 18.9344 18.9233 24.2624 12.3772 24.2624H12.3723C10.2411 24.2617 8.1509 23.6891 6.32735 22.6069ZM18.1051 15.2122C18.3172 15.3226 18.4604 15.3971 18.5214 15.5071C18.5975 15.6436 18.5975 16.2994 18.3443 17.0647C18.0908 17.8297 16.8759 18.5279 16.2917 18.622C15.7679 18.7063 15.1049 18.7415 14.3765 18.4922C13.9349 18.3412 13.3685 18.1397 12.6431 17.8022C9.7925 16.4764 7.86605 13.5004 7.502 12.9379C7.4765 12.8984 7.45865 12.8708 7.4486 12.8566L7.4462 12.8531C7.28525 12.6218 6.20705 11.0722 6.20705 9.46835C6.20705 7.95965 6.8951 7.16885 7.21175 6.8048C7.2335 6.7799 7.25345 6.75695 7.2713 6.73595C7.55 6.40805 7.8794 6.326 8.08205 6.326C8.28485 6.326 8.4878 6.3281 8.66495 6.3377C8.6867 6.3389 8.7095 6.33875 8.73305 6.3386C8.9102 6.3374 9.13115 6.33605 9.3491 6.8999C9.43295 7.11695 9.5555 7.43855 9.68495 7.77785C9.94655 8.46395 10.2357 9.2222 10.2866 9.33185C10.3626 9.4958 10.4132 9.68705 10.3119 9.90575C10.2966 9.93845 10.2825 9.9695 10.2692 9.99905C10.193 10.1665 10.1371 10.2896 10.0079 10.4521C9.95705 10.516 9.90455 10.5848 9.85205 10.6538C9.74735 10.7909 9.6428 10.9282 9.55175 11.026C9.3995 11.1893 9.2411 11.3665 9.4184 11.6944C9.59585 12.0223 10.2061 13.0948 11.11 13.9633C12.0817 14.8969 12.9263 15.2915 13.3542 15.4916C13.438 15.5306 13.5056 15.5623 13.5553 15.589C13.8593 15.7531 14.0366 15.7256 14.2141 15.5071C14.3914 15.2885 14.9741 14.5507 15.1768 14.2228C15.3795 13.895 15.5824 13.9496 15.8609 14.0588C16.1398 14.1683 17.6346 14.9605 17.9387 15.1244C17.9981 15.1565 18.0536 15.1853 18.1051 15.2122Z"/>
  </symbol>
  <symbol id="viber" viewBox="0 0 25 25">
    <path d="M18.5175 9.77849C18.4205 9.00509 18.1782 8.39774 17.7479 7.85984C17.1891 7.16714 16.4751 6.75239 15.4179 6.50639C14.729 6.34244 14.4506 6.36119 14.2015 6.58454C13.9693 6.79379 13.924 7.21319 14.1014 7.48469C14.2261 7.68179 14.37 7.75244 14.7702 7.82954C15.3032 7.92569 15.6714 8.05064 16.0065 8.23859C16.7177 8.64134 17.0489 9.27179 17.0843 10.2924C17.1009 10.7716 17.1431 10.9189 17.3138 11.0889C17.63 11.3995 18.1926 11.3391 18.4313 10.9674C18.5189 10.8271 18.5322 10.7662 18.5415 10.4409C18.5477 10.2394 18.5388 9.93959 18.5175 9.77849Z"/>
    <path d="M21.3029 10.6509C21.1625 8.28131 20.2178 6.37481 18.527 5.03351C17.5743 4.27977 16.4229 3.76151 15.1607 3.50946C14.6984 3.41933 13.8471 3.34626 13.701 3.38805C13.5632 3.42675 13.3683 3.57314 13.2815 3.70553C13.1895 3.84909 13.1688 4.16961 13.2473 4.35503C13.3737 4.66497 13.6091 4.77447 14.268 4.83103C15.2841 4.91823 16.332 5.26841 17.1237 5.78681C18.0276 6.37706 18.7463 7.18451 19.2111 8.13311C19.6127 8.94836 19.8597 10.123 19.8528 11.175C19.8506 11.5554 19.9104 11.7702 20.0664 11.9274C20.3019 12.1689 20.645 12.2217 20.9478 12.0613C21.2835 11.8881 21.362 11.5842 21.3029 10.6509Z"/>
    <path d="M24.3854 19.7763C24.3381 19.6409 24.2279 19.4319 24.1491 19.3119C23.6529 18.5769 20.9871 16.5302 19.656 15.8609C18.8961 15.4778 18.333 15.3501 17.9156 15.47C17.4666 15.5939 17.2304 15.7989 16.4783 16.7159C16.1751 17.0835 15.864 17.4278 15.7814 17.4819C15.5766 17.6213 15.1749 17.7335 14.8914 17.7335C14.2338 17.7296 13.0406 17.3117 12.1232 16.7622C11.4104 16.3368 10.4969 15.5745 9.79595 14.82C8.969 13.9341 8.4059 13.1525 7.961 12.2703C7.38605 11.1368 7.2404 10.4442 7.48055 9.93739C7.53965 9.80974 7.6184 9.67429 7.6538 9.63169C7.6892 9.59299 8.0594 9.29509 8.4689 8.97004C9.2723 8.34334 9.4022 8.20024 9.55175 7.77079C9.74075 7.22509 9.6896 6.66799 9.3983 6.10699C9.17375 5.68144 8.5871 4.75286 8.16185 4.15318C7.59875 3.36392 6.19685 1.67702 5.91725 1.44868C5.41325 1.04635 4.76747 0.976658 4.05467 1.24754C3.30261 1.53386 1.89285 2.64812 1.29036 3.42581C0.746957 4.12996 0.538323 4.62905 0.506793 5.28679C0.479238 5.82844 0.526472 6.05284 0.817877 6.74539C3.09785 12.1775 6.5 16.5147 11.1741 19.9581C13.6155 21.7572 16.1475 23.1269 18.774 24.0632C20.3058 24.6087 20.9713 24.6357 21.7549 24.1871C22.0856 23.9936 22.9047 23.1695 23.3615 22.5698C24.1175 21.5715 24.3971 21.1112 24.4758 20.7435C24.531 20.4921 24.4877 20.0549 24.3854 19.7763Z"/>
    <path d="M24.139 11.195C24.0884 9.8546 23.8585 8.75525 23.3788 7.52945C22.9052 6.3236 22.426 5.53685 21.5209 4.47266C20.6651 3.47484 20.0005 2.90511 18.9463 2.27093C17.4755 1.38732 15.6857 0.802594 13.6799 0.556684C12.9958 0.470734 12.8411 0.476869 12.6311 0.614254C12.2245 0.874489 12.2298 1.5236 12.6378 1.77993C12.7728 1.86147 12.8927 1.89119 13.4399 1.96145C14.2799 2.07239 14.82 2.17695 15.4609 2.34849C17.974 3.02247 19.9066 4.40012 21.1987 6.44525C22.2799 8.1497 22.7287 9.85445 22.6651 12.0317C22.6429 12.7676 22.6589 12.8972 22.7737 13.074C22.9933 13.4036 23.5724 13.4688 23.8696 13.1954C24.0545 13.0286 24.0893 12.9035 24.1258 12.2735C24.1432 11.9448 24.1469 11.4597 24.139 11.195Z"/>
  </symbol>
  <symbol id="quotes" viewBox="0 0 55 37">
    <path d="M21.8149 0V5.91474C17.6282 6.96625 14.4551 8.80639 12.2957 11.4352C10.1362 14.0201 9.03445 17.2842 8.99038 21.2274C10.004 20.5702 10.9956 20.0882 11.9651 19.7815C12.9347 19.431 13.9263 19.2558 14.9399 19.2558C17.2756 19.2558 19.1707 20.0225 20.625 21.556C22.1234 23.0894 22.8726 25.1048 22.8726 27.6021C22.8726 30.45 21.9471 32.7282 20.0962 34.4369C18.2893 36.1457 15.8433 37 12.7584 37C9.01242 37 5.94952 35.7075 3.56971 33.1226C1.1899 30.4938 0 27.0764 0 22.8703C0 16.868 1.9391 11.8295 5.81731 7.75488C9.73958 3.63647 15.0721 1.05151 21.8149 0ZM53.8762 0V5.91474C49.7336 6.96625 46.5825 8.78449 44.4231 11.3694C42.2636 13.9544 41.1398 17.2404 41.0517 21.2274C42.0653 20.5702 43.0569 20.0882 44.0264 19.7815C44.996 19.431 45.9876 19.2558 47.0012 19.2558C49.381 19.2558 51.2981 20.0225 52.7524 21.556C54.2508 23.0894 55 25.1048 55 27.6021C55 30.45 54.0745 32.7282 52.2236 34.4369C50.3726 36.1457 47.9046 37 44.8197 37C41.0737 37 38.0108 35.7075 35.631 33.1226C33.2953 30.4938 32.1274 27.0764 32.1274 22.8703C32.1274 16.868 34.0665 11.8295 37.9447 7.75488C41.8229 3.63647 47.1334 1.05151 53.8762 0Z"/>
  </symbol>
</svg>
